<svg xmlns="http://www.w3.org/2000/svg" width="1920" height="1080"><path d="M903,588L1061,601L1033,456Z" fill="rgb(93,129,248)" stroke="rgb(93,129,248)" stroke-width="1.51"/><path d="M1033,456L846,433L903,588Z" fill="rgb(97,133,248)" stroke="rgb(97,133,248)" stroke-width="1.51"/><path d="M1033,456L1028,309L846,433Z" fill="rgb(99,134,249)" stroke="rgb(99,134,249)" stroke-width="1.51"/><path d="M1180,303L1028,309L1033,456Z" fill="rgb(98,134,248)" stroke="rgb(98,134,248)" stroke-width="1.51"/><path d="M1061,601L1264,414L1033,456Z" fill="rgb(92,129,248)" stroke="rgb(92,129,248)" stroke-width="1.51"/><path d="M1020,811L1220,636L1061,601Z" fill="rgb(84,124,247)" stroke="rgb(84,124,247)" stroke-width="1.51"/><path d="M903,588L1020,811L1061,601Z" fill="rgb(88,126,248)" stroke="rgb(88,126,248)" stroke-width="1.51"/><path d="M903,588L834,767L1020,811Z" fill="rgb(87,126,247)" stroke="rgb(87,126,247)" stroke-width="1.51"/><path d="M681,633L834,767L903,588Z" fill="rgb(92,129,248)" stroke="rgb(92,129,248)" stroke-width="1.51"/><path d="M846,433L681,633L903,588Z" fill="rgb(97,133,248)" stroke="rgb(97,133,248)" stroke-width="1.51"/><path d="M863,264L737,418L846,433Z" fill="rgb(104,138,249)" stroke="rgb(104,138,249)" stroke-width="1.51"/><path d="M1028,309L863,264L846,433Z" fill="rgb(103,137,249)" stroke="rgb(103,137,249)" stroke-width="1.51"/><path d="M1220,636L1264,414L1061,601Z" fill="rgb(88,126,248)" stroke="rgb(88,126,248)" stroke-width="1.51"/><path d="M1264,414L1180,303L1033,456Z" fill="rgb(96,132,248)" stroke="rgb(96,132,248)" stroke-width="1.51"/><path d="M1028,309L1027,121L863,264Z" fill="rgb(106,140,249)" stroke="rgb(106,140,249)" stroke-width="1.51"/><path d="M737,418L681,633L846,433Z" fill="rgb(101,136,249)" stroke="rgb(101,136,249)" stroke-width="1.51"/><path d="M1020,811L1236,799L1220,636Z" fill="rgb(79,121,247)" stroke="rgb(79,121,247)" stroke-width="1.51"/><path d="M1220,636L1369,473L1264,414Z" fill="rgb(87,126,247)" stroke="rgb(87,126,247)" stroke-width="1.51"/><path d="M1264,414L1368,270L1180,303Z" fill="rgb(95,132,248)" stroke="rgb(95,132,248)" stroke-width="1.51"/><path d="M1376,637L1369,473L1220,636Z" fill="rgb(83,123,247)" stroke="rgb(83,123,247)" stroke-width="1.51"/><path d="M863,264L662,305L737,418Z" fill="rgb(107,141,249)" stroke="rgb(107,141,249)" stroke-width="1.51"/><path d="M737,418L481,420L681,633Z" fill="rgb(103,138,249)" stroke="rgb(103,138,249)" stroke-width="1.51"/><path d="M1236,799L1376,637L1220,636Z" fill="rgb(79,121,246)" stroke="rgb(79,121,246)" stroke-width="1.51"/><path d="M834,767L893,960L1020,811Z" fill="rgb(81,122,247)" stroke="rgb(81,122,247)" stroke-width="1.51"/><path d="M681,633L681,829L834,767Z" fill="rgb(91,129,248)" stroke="rgb(91,129,248)" stroke-width="1.51"/><path d="M504,665L681,829L681,633Z" fill="rgb(95,131,248)" stroke="rgb(95,131,248)" stroke-width="1.51"/><path d="M1180,303L1027,121L1028,309Z" fill="rgb(103,138,249)" stroke="rgb(103,138,249)" stroke-width="1.51"/><path d="M863,264L663,89L662,305Z" fill="rgb(111,144,250)" stroke="rgb(111,144,250)" stroke-width="1.51"/><path d="M1246,138L1027,121L1180,303Z" fill="rgb(103,138,249)" stroke="rgb(103,138,249)" stroke-width="1.51"/><path d="M681,829L893,960L834,767Z" fill="rgb(84,124,247)" stroke="rgb(84,124,247)" stroke-width="1.51"/><path d="M1020,811L1244,945L1236,799Z" fill="rgb(74,118,246)" stroke="rgb(74,118,246)" stroke-width="1.51"/><path d="M893,960L1013,987L1020,811Z" fill="rgb(76,119,246)" stroke="rgb(76,119,246)" stroke-width="1.51"/><path d="M1027,121L901,100L863,264Z" fill="rgb(109,143,250)" stroke="rgb(109,143,250)" stroke-width="1.51"/><path d="M1369,473L1368,270L1264,414Z" fill="rgb(91,129,248)" stroke="rgb(91,129,248)" stroke-width="1.51"/><path d="M1395,145L1368,270L1554,267Z" fill="rgb(96,132,248)" stroke="rgb(96,132,248)" stroke-width="1.51"/><path d="M662,305L564,318L737,418Z" fill="rgb(108,142,249)" stroke="rgb(108,142,249)" stroke-width="1.51"/><path d="M663,89L564,318L662,305Z" fill="rgb(113,145,250)" stroke="rgb(113,145,250)" stroke-width="1.51"/><path d="M1368,270L1246,138L1180,303Z" fill="rgb(99,135,248)" stroke="rgb(99,135,248)" stroke-width="1.51"/><path d="M1027,121L1064,-69L901,100Z" fill="rgb(112,145,250)" stroke="rgb(112,145,250)" stroke-width="1.51"/><path d="M1236,799L1393,794L1376,637Z" fill="rgb(75,118,246)" stroke="rgb(75,118,246)" stroke-width="1.51"/><path d="M1565,450L1368,270L1369,473Z" fill="rgb(88,127,247)" stroke="rgb(88,127,247)" stroke-width="1.51"/><path d="M1244,945L1393,794L1236,799Z" fill="rgb(70,116,246)" stroke="rgb(70,116,246)" stroke-width="1.51"/><path d="M1013,987L1244,945L1020,811Z" fill="rgb(72,117,246)" stroke="rgb(72,117,246)" stroke-width="1.51"/><path d="M481,420L504,665L681,633Z" fill="rgb(101,137,249)" stroke="rgb(101,137,249)" stroke-width="1.51"/><path d="M564,318L481,420L737,418Z" fill="rgb(108,141,249)" stroke="rgb(108,141,249)" stroke-width="1.51"/><path d="M681,829L728,1018L893,960Z" fill="rgb(81,122,247)" stroke="rgb(81,122,247)" stroke-width="1.51"/><path d="M893,960L841,1116L1013,987Z" fill="rgb(73,117,246)" stroke="rgb(73,117,246)" stroke-width="1.51"/><path d="M487,995L728,1018L681,829Z" fill="rgb(84,124,247)" stroke="rgb(84,124,247)" stroke-width="1.51"/><path d="M367,283L352,494L481,420Z" fill="rgb(111,144,250)" stroke="rgb(111,144,250)" stroke-width="1.51"/><path d="M901,100L663,89L863,264Z" fill="rgb(112,145,250)" stroke="rgb(112,145,250)" stroke-width="1.51"/><path d="M309,814L496,821L504,665Z" fill="rgb(97,133,248)" stroke="rgb(97,133,248)" stroke-width="1.51"/><path d="M504,665L496,821L681,829Z" fill="rgb(93,130,248)" stroke="rgb(93,130,248)" stroke-width="1.51"/><path d="M1368,270L1395,145L1246,138Z" fill="rgb(100,135,249)" stroke="rgb(100,135,249)" stroke-width="1.51"/><path d="M1179,-55L1064,-69L1027,121Z" fill="rgb(112,145,250)" stroke="rgb(112,145,250)" stroke-width="1.51"/><path d="M1565,450L1369,473L1584,618Z" fill="rgb(81,122,247)" stroke="rgb(81,122,247)" stroke-width="1.51"/><path d="M1584,618L1369,473L1376,637Z" fill="rgb(80,122,246)" stroke="rgb(80,122,246)" stroke-width="1.51"/><path d="M670,1158L841,1116L728,1018Z" fill="rgb(74,118,246)" stroke="rgb(74,118,246)" stroke-width="1.51"/><path d="M728,1018L841,1116L893,960Z" fill="rgb(75,119,246)" stroke="rgb(75,119,246)" stroke-width="1.51"/><path d="M1403,1113L1409,987L1244,945Z" fill="rgb(58,110,245)" stroke="rgb(58,110,245)" stroke-width="1.51"/><path d="M1393,794L1584,618L1376,637Z" fill="rgb(74,118,246)" stroke="rgb(74,118,246)" stroke-width="1.51"/><path d="M1611,782L1584,618L1393,794Z" fill="rgb(69,115,246)" stroke="rgb(69,115,246)" stroke-width="1.51"/><path d="M1179,-55L1027,121L1246,138Z" fill="rgb(108,142,249)" stroke="rgb(108,142,249)" stroke-width="1.51"/><path d="M901,100L841,-85L663,89Z" fill="rgb(116,149,251)" stroke="rgb(116,149,251)" stroke-width="1.51"/><path d="M1244,945L1409,987L1393,794Z" fill="rgb(65,113,246)" stroke="rgb(65,113,246)" stroke-width="1.51"/><path d="M1226,1195L1244,945L1013,987Z" fill="rgb(63,112,245)" stroke="rgb(63,112,245)" stroke-width="1.51"/><path d="M1402,-94L1179,-55L1246,138Z" fill="rgb(108,142,249)" stroke="rgb(108,142,249)" stroke-width="1.51"/><path d="M1565,450L1554,267L1368,270Z" fill="rgb(90,128,247)" stroke="rgb(90,128,247)" stroke-width="1.51"/><path d="M1395,145L1402,-94L1246,138Z" fill="rgb(104,139,249)" stroke="rgb(104,139,249)" stroke-width="1.51"/><path d="M1557,66L1554,267L1769,85Z" fill="rgb(95,132,248)" stroke="rgb(95,132,248)" stroke-width="1.51"/><path d="M352,494L358,615L504,665Z" fill="rgb(104,139,249)" stroke="rgb(104,139,249)" stroke-width="1.51"/><path d="M352,494L504,665L481,420Z" fill="rgb(106,140,249)" stroke="rgb(106,140,249)" stroke-width="1.51"/><path d="M841,1116L1010,1174L1013,987Z" fill="rgb(68,115,246)" stroke="rgb(68,115,246)" stroke-width="1.51"/><path d="M367,283L481,420L564,318Z" fill="rgb(112,145,250)" stroke="rgb(112,145,250)" stroke-width="1.51"/><path d="M1064,-69L841,-85L901,100Z" fill="rgb(115,148,250)" stroke="rgb(115,148,250)" stroke-width="1.51"/><path d="M663,89L514,75L564,318Z" fill="rgb(116,149,251)" stroke="rgb(116,149,251)" stroke-width="1.51"/><path d="M522,-111L514,75L663,89Z" fill="rgb(121,153,251)" stroke="rgb(121,153,251)" stroke-width="1.51"/><path d="M1752,280L1554,267L1565,450Z" fill="rgb(87,126,247)" stroke="rgb(87,126,247)" stroke-width="1.51"/><path d="M1529,1003L1611,782L1393,794Z" fill="rgb(63,112,245)" stroke="rgb(63,112,245)" stroke-width="1.51"/><path d="M514,75L367,283L564,318Z" fill="rgb(116,148,250)" stroke="rgb(116,148,250)" stroke-width="1.51"/><path d="M496,821L487,995L681,829Z" fill="rgb(89,127,248)" stroke="rgb(89,127,248)" stroke-width="1.51"/><path d="M898,1364L1064,1326L1010,1174Z" fill="rgb(66,114,246)" stroke="rgb(66,114,246)" stroke-width="1.51"/><path d="M354,937L487,995L496,821Z" fill="rgb(90,128,247)" stroke="rgb(90,128,247)" stroke-width="1.51"/><path d="M550,1146L670,1158L728,1018Z" fill="rgb(77,120,246)" stroke="rgb(77,120,246)" stroke-width="1.51"/><path d="M1010,1174L1226,1195L1013,987Z" fill="rgb(64,113,245)" stroke="rgb(64,113,245)" stroke-width="1.51"/><path d="M1409,987L1529,1003L1393,794Z" fill="rgb(60,111,245)" stroke="rgb(60,111,245)" stroke-width="1.51"/><path d="M1064,1326L1226,1195L1010,1174Z" fill="rgb(63,112,245)" stroke="rgb(63,112,245)" stroke-width="1.51"/><path d="M1226,1195L1403,1113L1244,945Z" fill="rgb(56,109,245)" stroke="rgb(56,109,245)" stroke-width="1.51"/><path d="M1403,1113L1529,1003L1409,987Z" fill="rgb(53,108,244)" stroke="rgb(53,108,244)" stroke-width="1.51"/><path d="M841,-85L674,-113L663,89Z" fill="rgb(119,151,251)" stroke="rgb(119,151,251)" stroke-width="1.51"/><path d="M741,-261L674,-113L841,-85Z" fill="rgb(118,151,251)" stroke="rgb(118,151,251)" stroke-width="1.51"/><path d="M358,615L309,814L504,665Z" fill="rgb(101,135,248)" stroke="rgb(101,135,248)" stroke-width="1.51"/><path d="M214,643L309,814L358,615Z" fill="rgb(102,138,249)" stroke="rgb(102,138,249)" stroke-width="1.51"/><path d="M214,643L358,615L352,494Z" fill="rgb(106,140,249)" stroke="rgb(106,140,249)" stroke-width="1.51"/><path d="M1554,267L1557,66L1395,145Z" fill="rgb(97,133,248)" stroke="rgb(97,133,248)" stroke-width="1.51"/><path d="M1772,462L1565,450L1584,618Z" fill="rgb(77,120,246)" stroke="rgb(77,120,246)" stroke-width="1.51"/><path d="M309,814L354,937L496,821Z" fill="rgb(94,131,248)" stroke="rgb(94,131,248)" stroke-width="1.51"/><path d="M487,995L550,1146L728,1018Z" fill="rgb(80,122,246)" stroke="rgb(80,122,246)" stroke-width="1.51"/><path d="M361,1132L550,1146L487,995Z" fill="rgb(82,123,247)" stroke="rgb(82,123,247)" stroke-width="1.51"/><path d="M1557,66L1402,-94L1395,145Z" fill="rgb(103,138,249)" stroke="rgb(103,138,249)" stroke-width="1.51"/><path d="M1215,-257L1023,-272L1064,-69Z" fill="rgb(112,145,250)" stroke="rgb(112,145,250)" stroke-width="1.51"/><path d="M1064,-69L1023,-272L841,-85Z" fill="rgb(114,147,250)" stroke="rgb(114,147,250)" stroke-width="1.51"/><path d="M309,814L205,960L354,937Z" fill="rgb(95,131,248)" stroke="rgb(95,131,248)" stroke-width="1.51"/><path d="M137,483L214,643L352,494Z" fill="rgb(110,143,250)" stroke="rgb(110,143,250)" stroke-width="1.51"/><path d="M1611,782L1755,670L1584,618Z" fill="rgb(67,115,245)" stroke="rgb(67,115,245)" stroke-width="1.51"/><path d="M1743,788L1755,670L1611,782Z" fill="rgb(63,112,245)" stroke="rgb(63,112,245)" stroke-width="1.51"/><path d="M514,75L315,128L367,283Z" fill="rgb(120,152,251)" stroke="rgb(120,152,251)" stroke-width="1.51"/><path d="M136,298L137,483L352,494Z" fill="rgb(114,147,250)" stroke="rgb(114,147,250)" stroke-width="1.51"/><path d="M312,-70L315,128L514,75Z" fill="rgb(124,156,251)" stroke="rgb(124,156,251)" stroke-width="1.51"/><path d="M1755,670L1772,462L1584,618Z" fill="rgb(72,117,246)" stroke="rgb(72,117,246)" stroke-width="1.51"/><path d="M1226,1195L1371,1326L1403,1113Z" fill="rgb(54,108,245)" stroke="rgb(54,108,245)" stroke-width="1.51"/><path d="M898,1364L1010,1174L841,1116Z" fill="rgb(69,115,246)" stroke="rgb(69,115,246)" stroke-width="1.51"/><path d="M720,1284L841,1116L670,1158Z" fill="rgb(75,118,246)" stroke="rgb(75,118,246)" stroke-width="1.51"/><path d="M550,1146L720,1284L670,1158Z" fill="rgb(77,120,246)" stroke="rgb(77,120,246)" stroke-width="1.51"/><path d="M1720,948L1743,788L1611,782Z" fill="rgb(57,109,245)" stroke="rgb(57,109,245)" stroke-width="1.51"/><path d="M674,-113L522,-111L663,89Z" fill="rgb(121,153,251)" stroke="rgb(121,153,251)" stroke-width="1.51"/><path d="M1772,462L1752,280L1565,450Z" fill="rgb(82,122,247)" stroke="rgb(82,122,247)" stroke-width="1.51"/><path d="M1064,1326L1245,1307L1226,1195Z" fill="rgb(60,111,245)" stroke="rgb(60,111,245)" stroke-width="1.51"/><path d="M1403,1113L1555,1146L1529,1003Z" fill="rgb(47,106,244)" stroke="rgb(47,106,244)" stroke-width="1.51"/><path d="M1529,1003L1720,948L1611,782Z" fill="rgb(55,109,245)" stroke="rgb(55,109,245)" stroke-width="1.51"/><path d="M1215,-257L1064,-69L1179,-55Z" fill="rgb(110,144,250)" stroke="rgb(110,144,250)" stroke-width="1.51"/><path d="M674,-113L565,-216L522,-111Z" fill="rgb(121,154,251)" stroke="rgb(121,154,251)" stroke-width="1.51"/><path d="M720,1284L898,1364L841,1116Z" fill="rgb(72,117,246)" stroke="rgb(72,117,246)" stroke-width="1.51"/><path d="M1064,1326L1371,1326L1245,1307Z" fill="rgb(58,110,245)" stroke="rgb(58,110,245)" stroke-width="1.51"/><path d="M1402,-94L1215,-257L1179,-55Z" fill="rgb(108,142,249)" stroke="rgb(108,142,249)" stroke-width="1.51"/><path d="M1371,1326L1555,1146L1403,1113Z" fill="rgb(50,107,244)" stroke="rgb(50,107,244)" stroke-width="1.51"/><path d="M1023,-272L857,-282L841,-85Z" fill="rgb(115,148,250)" stroke="rgb(115,148,250)" stroke-width="1.51"/><path d="M857,-282L741,-261L841,-85Z" fill="rgb(117,150,250)" stroke="rgb(117,150,250)" stroke-width="1.51"/><path d="M1555,1146L1720,948L1529,1003Z" fill="rgb(46,105,244)" stroke="rgb(46,105,244)" stroke-width="1.51"/><path d="M214,643L175,783L309,814Z" fill="rgb(102,137,249)" stroke="rgb(102,137,249)" stroke-width="1.51"/><path d="M354,937L361,1132L487,995Z" fill="rgb(86,126,247)" stroke="rgb(86,126,247)" stroke-width="1.51"/><path d="M14,639L175,783L214,643Z" fill="rgb(106,140,249)" stroke="rgb(106,140,249)" stroke-width="1.51"/><path d="M136,298L352,494L367,283Z" fill="rgb(115,148,250)" stroke="rgb(115,148,250)" stroke-width="1.51"/><path d="M1402,-94L1410,-219L1215,-257Z" fill="rgb(107,141,249)" stroke="rgb(107,141,249)" stroke-width="1.51"/><path d="M1557,66L1552,-101L1402,-94Z" fill="rgb(103,138,249)" stroke="rgb(103,138,249)" stroke-width="1.51"/><path d="M1729,-111L1552,-101L1557,66Z" fill="rgb(101,136,249)" stroke="rgb(101,136,249)" stroke-width="1.51"/><path d="M550,1146L506,1340L720,1284Z" fill="rgb(79,121,246)" stroke="rgb(79,121,246)" stroke-width="1.51"/><path d="M720,1284L506,1340L898,1364Z" fill="rgb(75,119,246)" stroke="rgb(75,119,246)" stroke-width="1.51"/><path d="M205,960L361,1132L354,937Z" fill="rgb(89,128,248)" stroke="rgb(89,128,248)" stroke-width="1.51"/><path d="M741,-261L565,-216L674,-113Z" fill="rgb(120,152,251)" stroke="rgb(120,152,251)" stroke-width="1.51"/><path d="M522,-111L312,-70L514,75Z" fill="rgb(124,156,251)" stroke="rgb(124,156,251)" stroke-width="1.51"/><path d="M1552,-101L1410,-219L1402,-94Z" fill="rgb(104,139,249)" stroke="rgb(104,139,249)" stroke-width="1.51"/><path d="M1245,1307L1371,1326L1226,1195Z" fill="rgb(56,109,245)" stroke="rgb(56,109,245)" stroke-width="1.51"/><path d="M898,1364L1371,1326L1064,1326Z" fill="rgb(62,112,245)" stroke="rgb(62,112,245)" stroke-width="1.51"/><path d="M181,60L136,298L315,128Z" fill="rgb(123,155,251)" stroke="rgb(123,155,251)" stroke-width="1.51"/><path d="M315,128L136,298L367,283Z" fill="rgb(120,151,251)" stroke="rgb(120,151,251)" stroke-width="1.51"/><path d="M175,783L205,960L309,814Z" fill="rgb(98,134,248)" stroke="rgb(98,134,248)" stroke-width="1.51"/><path d="M1945,262L1769,85L1752,280Z" fill="rgb(88,126,247)" stroke="rgb(88,126,247)" stroke-width="1.51"/><path d="M1752,280L1769,85L1554,267Z" fill="rgb(90,128,247)" stroke="rgb(90,128,247)" stroke-width="1.51"/><path d="M366,-290L312,-70L522,-111Z" fill="rgb(125,157,251)" stroke="rgb(125,157,251)" stroke-width="1.51"/><path d="M1772,462L1910,434L1752,280Z" fill="rgb(78,121,247)" stroke="rgb(78,121,247)" stroke-width="1.51"/><path d="M1935,649L1910,434L1772,462Z" fill="rgb(71,116,246)" stroke="rgb(71,116,246)" stroke-width="1.51"/><path d="M1935,649L1772,462L1755,670Z" fill="rgb(68,115,246)" stroke="rgb(68,115,246)" stroke-width="1.51"/><path d="M1935,649L1755,670L1925,765Z" fill="rgb(60,111,245)" stroke="rgb(60,111,245)" stroke-width="1.51"/><path d="M325,1294L506,1340L361,1132Z" fill="rgb(84,124,247)" stroke="rgb(84,124,247)" stroke-width="1.51"/><path d="M361,1132L506,1340L550,1146Z" fill="rgb(82,123,247)" stroke="rgb(82,123,247)" stroke-width="1.51"/><path d="M312,-70L181,60L315,128Z" fill="rgb(126,158,252)" stroke="rgb(126,158,252)" stroke-width="1.51"/><path d="M1925,765L1755,670L1743,788Z" fill="rgb(59,111,245)" stroke="rgb(59,111,245)" stroke-width="1.51"/><path d="M1944,957L1743,788L1720,948Z" fill="rgb(48,106,245)" stroke="rgb(48,106,245)" stroke-width="1.51"/><path d="M1944,957L1925,765L1743,788Z" fill="rgb(50,107,244)" stroke="rgb(50,107,244)" stroke-width="1.51"/><path d="M1729,-111L1574,-226L1552,-101Z" fill="rgb(101,136,249)" stroke="rgb(101,136,249)" stroke-width="1.51"/><path d="M1552,-101L1574,-226L1410,-219Z" fill="rgb(103,138,249)" stroke="rgb(103,138,249)" stroke-width="1.51"/><path d="M1410,-219L1733,-279L1215,-257Z" fill="rgb(104,139,249)" stroke="rgb(104,139,249)" stroke-width="1.51"/><path d="M1555,1146L1755,1139L1720,948Z" fill="rgb(38,103,244)" stroke="rgb(38,103,244)" stroke-width="1.51"/><path d="M1591,1357L1755,1139L1555,1146Z" fill="rgb(41,103,244)" stroke="rgb(41,103,244)" stroke-width="1.51"/><path d="M175,783L26,1016L205,960Z" fill="rgb(97,133,248)" stroke="rgb(97,133,248)" stroke-width="1.51"/><path d="M137,483L14,639L214,643Z" fill="rgb(110,144,249)" stroke="rgb(110,144,249)" stroke-width="1.51"/><path d="M6,466L14,639L137,483Z" fill="rgb(114,146,250)" stroke="rgb(114,146,250)" stroke-width="1.51"/><path d="M6,466L137,483L136,298Z" fill="rgb(117,149,251)" stroke="rgb(117,149,251)" stroke-width="1.51"/><path d="M29,254L6,466L136,298Z" fill="rgb(120,152,251)" stroke="rgb(120,152,251)" stroke-width="1.51"/><path d="M1769,85L1729,-111L1557,66Z" fill="rgb(98,134,248)" stroke="rgb(98,134,248)" stroke-width="1.51"/><path d="M1885,-73L1729,-111L1769,85Z" fill="rgb(97,133,248)" stroke="rgb(97,133,248)" stroke-width="1.51"/><path d="M1910,434L1945,262L1752,280Z" fill="rgb(80,122,247)" stroke="rgb(80,122,247)" stroke-width="1.51"/><path d="M2076,257L1945,262L1910,434Z" fill="rgb(79,121,247)" stroke="rgb(79,121,247)" stroke-width="1.51"/><path d="M181,60L29,254L136,298Z" fill="rgb(124,155,251)" stroke="rgb(124,155,251)" stroke-width="1.51"/><path d="M163,1179L325,1294L361,1132Z" fill="rgb(87,126,247)" stroke="rgb(87,126,247)" stroke-width="1.51"/><path d="M163,1179L361,1132L205,960Z" fill="rgb(88,126,247)" stroke="rgb(88,126,247)" stroke-width="1.51"/><path d="M898,1364L1591,1357L1371,1326Z" fill="rgb(56,109,245)" stroke="rgb(56,109,245)" stroke-width="1.51"/><path d="M1371,1326L1591,1357L1555,1146Z" fill="rgb(47,106,244)" stroke="rgb(47,106,244)" stroke-width="1.51"/><path d="M181,60L-33,94L29,254Z" fill="rgb(127,159,252)" stroke="rgb(127,159,252)" stroke-width="1.51"/><path d="M312,-70L154,-62L181,60Z" fill="rgb(128,160,252)" stroke="rgb(128,160,252)" stroke-width="1.51"/><path d="M153,-222L154,-62L312,-70Z" fill="rgb(129,160,252)" stroke="rgb(129,160,252)" stroke-width="1.51"/><path d="M565,-216L366,-290L522,-111Z" fill="rgb(123,155,251)" stroke="rgb(123,155,251)" stroke-width="1.51"/><path d="M741,-261L366,-290L565,-216Z" fill="rgb(122,154,251)" stroke="rgb(122,154,251)" stroke-width="1.51"/><path d="M857,-282L366,-290L741,-261Z" fill="rgb(120,152,251)" stroke="rgb(120,152,251)" stroke-width="1.51"/><path d="M33,1115L163,1179L205,960Z" fill="rgb(90,128,247)" stroke="rgb(90,128,247)" stroke-width="1.51"/><path d="M1935,649L2120,456L1910,434Z" fill="rgb(69,115,246)" stroke="rgb(69,115,246)" stroke-width="1.51"/><path d="M1925,765L2096,652L1935,649Z" fill="rgb(58,110,245)" stroke="rgb(58,110,245)" stroke-width="1.51"/><path d="M1755,1139L1944,957L1720,948Z" fill="rgb(37,103,244)" stroke="rgb(37,103,244)" stroke-width="1.51"/><path d="M1951,1115L1944,957L1755,1139Z" fill="rgb(25,100,243)" stroke="rgb(25,100,243)" stroke-width="1.51"/><path d="M14,639L-46,823L175,783Z" fill="rgb(105,140,249)" stroke="rgb(105,140,249)" stroke-width="1.51"/><path d="M-170,769L-46,823L14,639Z" fill="rgb(107,141,249)" stroke="rgb(107,141,249)" stroke-width="1.51"/><path d="M-170,769L14,639L-218,665Z" fill="rgb(109,143,249)" stroke="rgb(109,143,249)" stroke-width="1.51"/><path d="M-46,823L26,1016L175,783Z" fill="rgb(101,136,249)" stroke="rgb(101,136,249)" stroke-width="1.51"/><path d="M1945,262L1953,60L1769,85Z" fill="rgb(89,127,247)" stroke="rgb(89,127,247)" stroke-width="1.51"/><path d="M2063,72L1953,60L1945,262Z" fill="rgb(88,127,247)" stroke="rgb(88,127,247)" stroke-width="1.51"/><path d="M1729,-111L1733,-279L1574,-226Z" fill="rgb(99,135,248)" stroke="rgb(99,135,248)" stroke-width="1.51"/><path d="M1953,60L1885,-73L1769,85Z" fill="rgb(94,131,248)" stroke="rgb(94,131,248)" stroke-width="1.51"/><path d="M1885,-73L1733,-279L1729,-111Z" fill="rgb(97,133,248)" stroke="rgb(97,133,248)" stroke-width="1.51"/><path d="M1574,-226L1733,-279L1410,-219Z" fill="rgb(102,137,249)" stroke="rgb(102,137,249)" stroke-width="1.51"/><path d="M1215,-257L1733,-279L1023,-272Z" fill="rgb(107,141,249)" stroke="rgb(107,141,249)" stroke-width="1.51"/><path d="M1023,-272L1733,-279L857,-282Z" fill="rgb(110,143,250)" stroke="rgb(110,143,250)" stroke-width="1.51"/><path d="M857,-282L1733,-279L366,-290Z" fill="rgb(114,147,250)" stroke="rgb(114,147,250)" stroke-width="1.51"/><path d="M1591,1357L1766,1334L1755,1139Z" fill="rgb(37,102,244)" stroke="rgb(37,102,244)" stroke-width="1.51"/><path d="M-199,302L-209,419L6,466Z" fill="rgb(119,152,251)" stroke="rgb(119,152,251)" stroke-width="1.51"/><path d="M154,-62L-33,94L181,60Z" fill="rgb(129,161,252)" stroke="rgb(129,161,252)" stroke-width="1.51"/><path d="M-46,-99L-33,94L154,-62Z" fill="rgb(132,163,252)" stroke="rgb(132,163,252)" stroke-width="1.51"/><path d="M163,1179L133,1306L325,1294Z" fill="rgb(89,127,247)" stroke="rgb(89,127,247)" stroke-width="1.51"/><path d="M26,1016L33,1115L205,960Z" fill="rgb(94,131,248)" stroke="rgb(94,131,248)" stroke-width="1.51"/><path d="M-164,1012L33,1115L26,1016Z" fill="rgb(95,132,248)" stroke="rgb(95,132,248)" stroke-width="1.51"/><path d="M2116,761L2096,652L1925,765Z" fill="rgb(56,109,245)" stroke="rgb(56,109,245)" stroke-width="1.51"/><path d="M2116,761L1925,765L1944,957Z" fill="rgb(49,106,244)" stroke="rgb(49,106,244)" stroke-width="1.51"/><path d="M1766,1334L1951,1115L1755,1139Z" fill="rgb(28,100,243)" stroke="rgb(28,100,243)" stroke-width="1.51"/><path d="M1953,60L2092,-69L1885,-73Z" fill="rgb(94,131,248)" stroke="rgb(94,131,248)" stroke-width="1.51"/><path d="M2120,456L2076,257L1910,434Z" fill="rgb(76,119,246)" stroke="rgb(76,119,246)" stroke-width="1.51"/><path d="M366,-290L153,-222L312,-70Z" fill="rgb(127,159,252)" stroke="rgb(127,159,252)" stroke-width="1.51"/><path d="M2096,652L2120,456L1935,649Z" fill="rgb(65,113,245)" stroke="rgb(65,113,245)" stroke-width="1.51"/><path d="M33,1115L133,1306L163,1179Z" fill="rgb(91,129,248)" stroke="rgb(91,129,248)" stroke-width="1.51"/><path d="M325,1294L133,1306L506,1340Z" fill="rgb(86,125,247)" stroke="rgb(86,125,247)" stroke-width="1.51"/><path d="M2096,652L2116,761L2120,456Z" fill="rgb(63,112,245)" stroke="rgb(63,112,245)" stroke-width="1.51"/><path d="M2121,997L2116,761L1944,957Z" fill="rgb(42,104,244)" stroke="rgb(42,104,244)" stroke-width="1.51"/><path d="M2092,-69L2063,72L2076,257Z" fill="rgb(90,128,247)" stroke="rgb(90,128,247)" stroke-width="1.51"/><path d="M2076,257L2063,72L1945,262Z" fill="rgb(85,125,247)" stroke="rgb(85,125,247)" stroke-width="1.51"/><path d="M1885,-73L1965,-276L1733,-279Z" fill="rgb(95,132,248)" stroke="rgb(95,132,248)" stroke-width="1.51"/><path d="M-46,823L-164,1012L26,1016Z" fill="rgb(99,134,248)" stroke="rgb(99,134,248)" stroke-width="1.51"/><path d="M33,1115L-15,1341L133,1306Z" fill="rgb(92,130,248)" stroke="rgb(92,130,248)" stroke-width="1.51"/><path d="M-218,665L14,639L6,466Z" fill="rgb(113,146,250)" stroke="rgb(113,146,250)" stroke-width="1.51"/><path d="M-199,302L6,466L29,254Z" fill="rgb(121,153,251)" stroke="rgb(121,153,251)" stroke-width="1.51"/><path d="M-203,126L-199,302L29,254Z" fill="rgb(125,157,251)" stroke="rgb(125,157,251)" stroke-width="1.51"/><path d="M-203,126L29,254L-33,94Z" fill="rgb(127,159,252)" stroke="rgb(127,159,252)" stroke-width="1.51"/><path d="M-209,419L-218,665L6,466Z" fill="rgb(115,148,250)" stroke="rgb(115,148,250)" stroke-width="1.51"/><path d="M153,-222L-46,-99L154,-62Z" fill="rgb(131,162,252)" stroke="rgb(131,162,252)" stroke-width="1.51"/><path d="M1951,1115L2068,1108L1944,957Z" fill="rgb(23,99,243)" stroke="rgb(23,99,243)" stroke-width="1.51"/><path d="M2109,1295L2068,1108L1951,1115Z" fill="rgb(20,99,243)" stroke="rgb(20,99,243)" stroke-width="1.51"/><path d="M2116,761L2121,997L2120,456Z" fill="rgb(55,109,245)" stroke="rgb(55,109,245)" stroke-width="1.51"/><path d="M2068,1108L2121,997L1944,957Z" fill="rgb(29,100,244)" stroke="rgb(29,100,244)" stroke-width="1.51"/><path d="M-218,665L-164,1012L-170,769Z" fill="rgb(104,139,249)" stroke="rgb(104,139,249)" stroke-width="1.51"/><path d="M-170,769L-164,1012L-46,823Z" fill="rgb(102,137,249)" stroke="rgb(102,137,249)" stroke-width="1.51"/><path d="M153,-222L29,-261L-46,-99Z" fill="rgb(131,163,252)" stroke="rgb(131,163,252)" stroke-width="1.51"/><path d="M366,-290L29,-261L153,-222Z" fill="rgb(129,161,252)" stroke="rgb(129,161,252)" stroke-width="1.51"/><path d="M898,1364L1930,1365L1591,1357Z" fill="rgb(49,106,244)" stroke="rgb(49,106,244)" stroke-width="1.51"/><path d="M1591,1357L1930,1365L1766,1334Z" fill="rgb(33,101,244)" stroke="rgb(33,101,244)" stroke-width="1.51"/><path d="M1766,1334L1930,1365L1951,1115Z" fill="rgb(24,99,243)" stroke="rgb(24,99,243)" stroke-width="1.51"/><path d="M-209,419L-203,126L-218,665Z" fill="rgb(119,151,251)" stroke="rgb(119,151,251)" stroke-width="1.51"/><path d="M-199,302L-203,126L-209,419Z" fill="rgb(123,155,251)" stroke="rgb(123,155,251)" stroke-width="1.51"/><path d="M-184,-70L-203,126L-33,94Z" fill="rgb(131,162,252)" stroke="rgb(131,162,252)" stroke-width="1.51"/><path d="M-184,-70L-33,94L-46,-99Z" fill="rgb(132,164,252)" stroke="rgb(132,164,252)" stroke-width="1.51"/><path d="M2120,456L2092,-69L2076,257Z" fill="rgb(84,125,247)" stroke="rgb(84,125,247)" stroke-width="1.51"/><path d="M2063,72L2092,-69L1953,60Z" fill="rgb(93,130,248)" stroke="rgb(93,130,248)" stroke-width="1.51"/><path d="M2076,-217L1965,-276L1885,-73Z" fill="rgb(94,131,248)" stroke="rgb(94,131,248)" stroke-width="1.51"/><path d="M-135,1296L-15,1341L33,1115Z" fill="rgb(94,131,248)" stroke="rgb(94,131,248)" stroke-width="1.51"/><path d="M133,1306L-15,1341L506,1340Z" fill="rgb(89,127,247)" stroke="rgb(89,127,247)" stroke-width="1.51"/><path d="M506,1340L-15,1341L898,1364Z" fill="rgb(82,123,247)" stroke="rgb(82,123,247)" stroke-width="1.51"/><path d="M-149,-215L-184,-70L-46,-99Z" fill="rgb(132,164,252)" stroke="rgb(132,164,252)" stroke-width="1.51"/><path d="M-218,665L-165,1191L-164,1012Z" fill="rgb(99,134,248)" stroke="rgb(99,134,248)" stroke-width="1.51"/><path d="M-164,1012L-165,1191L33,1115Z" fill="rgb(94,131,248)" stroke="rgb(94,131,248)" stroke-width="1.51"/><path d="M2092,-69L2076,-217L1885,-73Z" fill="rgb(94,131,248)" stroke="rgb(94,131,248)" stroke-width="1.51"/><path d="M-165,1191L-135,1296L33,1115Z" fill="rgb(94,131,248)" stroke="rgb(94,131,248)" stroke-width="1.51"/><path d="M1930,1365L2109,1295L1951,1115Z" fill="rgb(20,99,243)" stroke="rgb(20,99,243)" stroke-width="1.51"/><path d="M2068,1108L2109,1295L2121,997Z" fill="rgb(20,99,243)" stroke="rgb(20,99,243)" stroke-width="1.51"/><path d="M29,-261L-149,-215L-46,-99Z" fill="rgb(132,164,252)" stroke="rgb(132,164,252)" stroke-width="1.51"/></svg>